<svg width="21" height="20" viewBox="0 0 21 20" fill="none" xmlns="http://www.w3.org/2000/svg">
<path d="M16.034 16.0001C16.5653 16.0001 17.0263 16.2031 17.417 16.6091C17.8077 17.0151 18.003 17.4838 18.003 18.0151C18.003 18.5464 17.8077 19.0074 17.417 19.3981C17.0263 19.7888 16.5653 19.9841 16.034 19.9841C15.5027 19.9841 15.034 19.7888 14.628 19.3981C14.222 19.0074 14.019 18.5464 14.019 18.0151C14.019 17.4838 14.222 17.0151 14.628 16.6091C15.034 16.2031 15.5027 16.0001 16.034 16.0001ZM0.00200003 0.0161133H3.283L4.221 1.98511H19.034C19.3153 1.98511 19.5497 2.08678 19.737 2.29011C19.9243 2.49345 20.018 2.73578 20.018 3.01711C20.018 3.17311 19.971 3.32945 19.877 3.48611L16.314 9.95511C15.9387 10.6424 15.3607 10.9861 14.58 10.9861H7.127L6.236 12.6271L6.189 12.7681C6.189 12.9241 6.267 13.0021 6.423 13.0021H18.001V15.0181H6.001C5.46967 15.0181 5.00867 14.8151 4.618 14.4091C4.22733 14.0031 4.032 13.5344 4.032 13.0031C4.032 12.6904 4.11 12.3778 4.266 12.0651L5.625 9.58111L2.016 1.98711H0V0.0181131L0.00200003 0.0161133ZM6.002 16.0001C6.53333 16.0001 7.002 16.2031 7.408 16.6091C7.814 17.0151 8.017 17.4838 8.017 18.0151C8.017 18.5464 7.814 19.0074 7.408 19.3981C7.002 19.7888 6.53333 19.9841 6.002 19.9841C5.47067 19.9841 5.00967 19.7888 4.619 19.3981C4.22833 19.0074 4.033 18.5464 4.033 18.0151C4.033 17.4838 4.22833 17.0151 4.619 16.6091C5.00967 16.2031 5.47067 16.0001 6.002 16.0001Z" fill="#262D19"/>
</svg>
