<svg width="15" height="15" viewBox="0 0 15 15" fill="none" xmlns="http://www.w3.org/2000/svg">
<rect x="0.5" y="0.5" width="14" height="14" rx="1.5" stroke="#5A5A5A"/>
<path d="M7.53516 4.14835C7.58212 4.14829 7.62864 4.1575 7.67204 4.17545C7.71544 4.19339 7.75488 4.21972 7.78809 4.25293C7.8213 4.28614 7.84763 4.32558 7.86558 4.36898C7.88352 4.41239 7.89273 4.4589 7.89267 4.50587L7.89217 7.17866L10.565 7.17815C10.6119 7.17815 10.6584 7.1874 10.7018 7.20536C10.7451 7.22333 10.7846 7.24967 10.8178 7.28286C10.851 7.31606 10.8773 7.35547 10.8953 7.39885C10.9132 7.44223 10.9225 7.48872 10.9225 7.53567C10.9225 7.58262 10.9132 7.62911 10.8953 7.67248C10.8773 7.71586 10.851 7.75527 10.8178 7.78847C10.7846 7.82167 10.7451 7.848 10.7018 7.86597C10.6584 7.88394 10.6119 7.89318 10.565 7.89318L7.89217 7.89268L7.89267 10.5655C7.89267 10.6124 7.88342 10.6589 7.86546 10.7023C7.84749 10.7457 7.82116 10.7851 7.78796 10.8183C7.75476 10.8515 7.71535 10.8778 7.67197 10.8958C7.6286 10.9137 7.58211 10.923 7.53516 10.923C7.48821 10.923 7.44172 10.9137 7.39834 10.8958C7.35496 10.8778 7.31555 10.8515 7.28235 10.8183C7.24916 10.7851 7.22282 10.7457 7.20485 10.7023C7.18689 10.6589 7.17764 10.6124 7.17764 10.5655L7.17815 7.89268L4.50536 7.89318C4.45841 7.89318 4.41192 7.88394 4.36854 7.86597C4.32517 7.848 4.28576 7.82167 4.25256 7.78847C4.21936 7.75527 4.19302 7.71586 4.17506 7.67248C4.15709 7.62911 4.14784 7.58262 4.14784 7.53567C4.14784 7.48872 4.15709 7.44223 4.17506 7.39885C4.19302 7.35547 4.21936 7.31606 4.25256 7.28286C4.28575 7.24967 4.32517 7.22333 4.36854 7.20536C4.41192 7.1874 4.45841 7.17815 4.50536 7.17815L7.17815 7.17866L7.17764 4.50587C7.17758 4.4589 7.18679 4.41239 7.20473 4.36898C7.22268 4.32558 7.24901 4.28614 7.28222 4.25293C7.31543 4.21972 7.35487 4.19339 7.39827 4.17545C7.44167 4.1575 7.48819 4.14829 7.53516 4.14835Z" fill="#5A5A5A"/>
</svg>
