<svg width="16" height="16" viewBox="0 0 16 16" fill="none" xmlns="http://www.w3.org/2000/svg">
<path d="M12.8157 12.8077C13.2404 12.8077 13.6088 12.9704 13.9211 13.2957C14.2333 13.621 14.3895 13.9965 14.3895 14.4223C14.3895 14.848 14.2333 15.2174 13.9211 15.5304C13.6088 15.8435 13.2404 16 12.8157 16C12.391 16 12.0164 15.8435 11.6919 15.5304C11.3674 15.2174 11.2051 14.848 11.2051 14.4223C11.2051 13.9965 11.3674 13.621 11.6919 13.2957C12.0164 12.9704 12.391 12.8077 12.8157 12.8077ZM0.00159859 0H2.62404L3.37376 1.57772H15.2135C15.4384 1.57772 15.6257 1.65919 15.7754 1.82212C15.9251 1.98504 16 2.17922 16 2.40465C16 2.52965 15.9624 2.65491 15.8873 2.78045L13.0395 7.96394C12.7395 8.51469 12.2775 8.79006 11.6535 8.79006H5.69647L4.98431 10.105L4.94675 10.2179C4.94675 10.3429 5.00909 10.4054 5.13378 10.4054H14.3879V12.0208H4.79648C4.3718 12.0208 4.00333 11.8582 3.69108 11.5329C3.37883 11.2075 3.2227 10.832 3.2227 10.4063C3.2227 10.1557 3.28504 9.90518 3.40973 9.65465L4.49595 7.66426L1.61135 1.57933H0V0.00160245L0.00159859 0ZM4.79728 12.8077C5.22197 12.8077 5.59656 12.9704 5.92107 13.2957C6.24558 13.621 6.40783 13.9965 6.40783 14.4223C6.40783 14.848 6.24558 15.2174 5.92107 15.5304C5.59656 15.8435 5.22197 16 4.79728 16C4.3726 16 4.00413 15.8435 3.69188 15.5304C3.37962 15.2174 3.2235 14.848 3.2235 14.4223C3.2235 13.9965 3.37962 13.621 3.69188 13.2957C4.00413 12.9704 4.3726 12.8077 4.79728 12.8077Z" fill="white"/>
</svg>
