<svg width="8" height="6" viewBox="0 0 8 6" fill="none" xmlns="http://www.w3.org/2000/svg">
<path d="M6.02278 0.180912C6.14601 0.0635912 6.31 -0.00126858 6.48014 1.88042e-05C6.65028 0.00130619 6.81327 0.0686402 6.93472 0.187813C7.05616 0.306985 7.12655 0.468674 7.13105 0.638763C7.13555 0.808851 7.07379 0.974035 6.95882 1.09946L3.46835 5.46474C3.40833 5.52938 3.33589 5.58126 3.25536 5.61727C3.17483 5.65328 3.08787 5.67269 2.99967 5.67432C2.91147 5.67595 2.82385 5.65978 2.74205 5.62678C2.66024 5.59377 2.58593 5.54461 2.52356 5.48223L0.208823 3.1675C0.144362 3.10743 0.0926589 3.035 0.0567989 2.95452C0.0209389 2.87403 0.00165645 2.78715 0.000102107 2.69906C-0.00145223 2.61096 0.0147534 2.52346 0.047752 2.44176C0.0807505 2.36006 0.129866 2.28585 0.192169 2.22355C0.254471 2.16125 0.328684 2.11213 0.410381 2.07913C0.492077 2.04613 0.579583 2.02993 0.667678 2.03148C0.755774 2.03304 0.842654 2.05232 0.923135 2.08818C1.00362 2.12404 1.07605 2.17574 1.13612 2.2402L2.96796 4.07117L6.00616 0.200158C6.01163 0.193423 6.01747 0.186998 6.02365 0.180912H6.02278Z" fill="#fff"/>
</svg>
