<svg width="20" height="9" viewBox="0 0 20 9" fill="none" xmlns="http://www.w3.org/2000/svg">
<path d="M9.98431 8.99696C9.65111 8.99755 9.32819 8.89297 9.07162 8.7014L0.515173 2.27615C0.223945 2.05803 0.0408018 1.74459 0.00603444 1.40479C-0.0287329 1.06498 0.0877231 0.726655 0.329783 0.464227C0.571843 0.201798 0.919679 0.0367669 1.29677 0.00543771C1.67386 -0.0258915 2.04932 0.0790476 2.34055 0.29717L9.98431 6.05419L17.6281 0.502779C17.7739 0.396035 17.9418 0.316321 18.122 0.26822C18.3021 0.220118 18.4911 0.204577 18.6779 0.222489C18.8648 0.240402 19.0459 0.291414 19.2108 0.372596C19.3757 0.453777 19.5212 0.563527 19.6388 0.695536C19.7694 0.827667 19.8684 0.982678 19.9294 1.15086C19.9904 1.31904 20.0122 1.49676 19.9935 1.67289C19.9747 1.84903 19.9158 2.01977 19.8205 2.17444C19.7251 2.3291 19.5953 2.46435 19.4392 2.57171L10.8827 8.7785C10.6188 8.9398 10.3025 9.01671 9.98431 8.99696Z" fill="#262D19"/>
</svg>
