<svg width="17" height="17" viewBox="0 0 17 17" fill="none" xmlns="http://www.w3.org/2000/svg">
<path d="M12.9824 15.9377C12.3343 15.9377 11.4238 15.7033 10.0605 14.9416C8.40269 14.0119 7.12038 13.1536 5.47152 11.509C3.88175 9.92028 3.10812 8.89164 2.02536 6.92137C0.802162 4.69676 1.01068 3.53067 1.24376 3.03229C1.52134 2.43663 1.93107 2.08036 2.46066 1.72674C2.76146 1.52966 3.07979 1.36072 3.4116 1.22206C3.4448 1.20778 3.47568 1.19416 3.50324 1.18188C3.66759 1.10784 3.91661 0.995942 4.23204 1.11547C4.44255 1.1945 4.63048 1.3562 4.92466 1.64672C5.52796 2.24172 6.3524 3.56686 6.65654 4.21764C6.86074 4.65625 6.99587 4.94579 6.9962 5.27051C6.9962 5.65069 6.80495 5.94387 6.57286 6.2603C6.52937 6.31973 6.4862 6.37651 6.44437 6.43163C6.19169 6.76366 6.13624 6.85961 6.17277 7.03094C6.24681 7.37526 6.79898 8.40024 7.70642 9.30569C8.61386 10.2111 9.60929 10.7284 9.95494 10.8022C10.1336 10.8403 10.2315 10.7826 10.5742 10.5209C10.6233 10.4834 10.6738 10.4446 10.7266 10.4057C11.0805 10.1424 11.3601 9.95614 11.7313 9.95614H11.7333C12.0564 9.95614 12.3329 10.0963 12.7911 10.3273C13.3888 10.6288 14.7538 11.4426 15.3524 12.0466C15.6436 12.3401 15.806 12.5274 15.8853 12.7376C16.0049 13.054 15.8923 13.302 15.8189 13.468C15.8067 13.4956 15.793 13.5258 15.7788 13.5593C15.639 13.8906 15.4691 14.2082 15.2711 14.5083C14.9181 15.0362 14.5605 15.4449 13.9635 15.7229C13.657 15.8679 13.3215 15.9413 12.9824 15.9377Z" fill="white"/>
</svg>
