<svg width="28" height="23" viewBox="0 0 28 23" fill="none" xmlns="http://www.w3.org/2000/svg">
<path d="M27.4043 0.884655H0.480777C0.215388 0.884655 0 1.09956 0 1.36543V22.5196C0 22.7855 0.215388 23.0004 0.480777 23.0004H27.4043C27.6697 23.0004 27.8851 22.7855 27.8851 22.5196V1.36543C27.8851 1.09956 27.6697 0.884655 27.4043 0.884655ZM26.9235 22.0388H0.961554V1.84621H26.9235V22.0388Z" fill="#A2A2A2"/>
<path d="M7.69209 11.5281C9.16856 11.5281 10.3695 10.3271 10.3695 8.85113C10.3695 7.37419 9.16856 6.17321 7.69209 6.17321C6.21563 6.17321 5.01465 7.37419 5.01465 8.85065C5.01465 10.3271 6.21563 11.5281 7.69209 11.5281ZM7.69209 7.13476C8.63826 7.13476 9.40799 7.90497 9.40799 8.85065C9.40799 9.79634 8.63826 10.5665 7.69209 10.5665C6.74593 10.5665 5.9762 9.79682 5.9762 8.85113C5.9762 7.90545 6.74593 7.13476 7.69209 7.13476Z" fill="#A2A2A2"/>
<path d="M3.3658 20.1157C3.4783 20.1157 3.59176 20.0763 3.68311 19.996L11.526 13.0911L16.479 18.0436C16.667 18.2316 16.9708 18.2316 17.1588 18.0436C17.3468 17.8556 17.3468 17.5518 17.1588 17.3638L14.8477 15.0527L19.2617 10.2189L24.6757 15.182C24.8714 15.3613 25.1758 15.3479 25.3551 15.1522C25.5344 14.9565 25.5214 14.6522 25.3253 14.4729L19.556 9.18432C19.4617 9.09826 19.3362 9.05547 19.2098 9.05835C19.0824 9.06412 18.9622 9.12037 18.8761 9.21461L14.1674 14.3719L11.8871 12.0916C11.7073 11.9122 11.4198 11.9031 11.2294 12.0704L3.048 19.2739C2.84848 19.4494 2.82925 19.7532 3.00473 19.9528C3.09993 20.0609 3.23262 20.1157 3.3658 20.1157Z" fill="#A2A2A2"/>
</svg>
