<svg width="13" height="12" viewBox="0 0 13 12" fill="none" xmlns="http://www.w3.org/2000/svg">
<path d="M12.163 4H10.333L9.94303 1.67C9.86445 1.31747 9.69187 0.992796 9.44362 0.730455C9.19536 0.468114 8.8807 0.277897 8.53303 0.18C8.18374 0.0676254 7.81989 0.00698254 7.45303 0H5.21303C4.84618 0.00698254 4.48232 0.0676254 4.13303 0.18C3.78537 0.277897 3.47071 0.468114 3.22245 0.730455C2.9742 0.992796 2.80161 1.31747 2.72303 1.67L2.33303 4H0.503033C0.424272 3.99952 0.346513 4.01766 0.276089 4.05293C0.205666 4.0882 0.144572 4.13961 0.0977835 4.20297C0.0509952 4.26633 0.0198368 4.33984 0.00684695 4.41753C-0.00614292 4.49521 -0.000596737 4.57487 0.0230334 4.65L1.90303 10.95C1.99875 11.2543 2.189 11.5202 2.44616 11.7091C2.70333 11.8979 3.01399 11.9998 3.33303 12H9.33303C9.65036 11.9977 9.95878 11.8948 10.2139 11.7061C10.4691 11.5175 10.6578 11.2527 10.753 10.95L12.633 4.65C12.6564 4.57567 12.6621 4.4969 12.6496 4.41998C12.6372 4.34306 12.6069 4.27012 12.5613 4.20698C12.5156 4.14383 12.4558 4.09224 12.3867 4.0563C12.3175 4.02036 12.2409 4.00108 12.163 4ZM3.35303 4L3.71303 1.83C3.7525 1.65282 3.84405 1.4915 3.97591 1.36676C4.10778 1.24202 4.27394 1.15957 4.45303 1.13C4.69903 1.052 4.95503 1.009 5.21303 1H7.45303C7.71403 1.008 7.97303 1.051 8.22303 1.13C8.40213 1.15957 8.56829 1.24202 8.70015 1.36676C8.83202 1.4915 8.92357 1.65282 8.96303 1.83L9.31303 4H3.31303H3.35303Z" fill="#202020"/>
</svg>
