<svg width="15" height="11" viewBox="0 0 15 11" fill="none" xmlns="http://www.w3.org/2000/svg">
<path d="M14.8996 3.46406L13.0341 0.359177C12.8279 0.015463 12.3709 -0.1014 12.0147 0.095663L10.3976 0.991612L11.7967 3.322C11.8483 3.40907 11.8178 3.51677 11.7287 3.56718L11.4053 3.74591C11.3163 3.79632 11.2014 3.76653 11.1499 3.67946L9.75074 1.35137L8.45707 2.06858L9.11093 3.15472C9.16249 3.2418 9.13203 3.34949 9.04297 3.3999L8.71955 3.57864C8.63049 3.62905 8.51566 3.59926 8.4641 3.51219L7.81023 2.42834L6.51656 3.14556L7.91804 5.47594C7.9696 5.56072 7.93913 5.67071 7.85007 5.72112L7.52665 5.89985C7.4376 5.95027 7.32276 5.92048 7.2712 5.8334L5.87207 3.50302L4.57839 4.22024L5.23226 5.30637C5.28382 5.39345 5.25335 5.50115 5.1643 5.55156L4.84088 5.73029C4.75182 5.7807 4.63699 5.75091 4.58543 5.66384L3.93156 4.57541L2.63789 5.29263L4.03702 7.62301C4.08858 7.70779 4.05811 7.81778 3.96906 7.86819L3.64564 8.04692C3.55658 8.09734 3.44174 8.06755 3.39019 7.98047L1.99105 5.65696L0.37396 6.55291C0.0177319 6.75227 -0.106479 7.18993 0.0997582 7.53364L1.96527 10.6408C2.17151 10.9845 2.62851 11.1014 2.98474 10.9043L14.6278 4.4448C14.984 4.24773 15.1059 3.80778 14.8996 3.46406Z" fill="#202020"/>
</svg>
