<svg width="17" height="19" viewBox="0 0 17 19" fill="none" xmlns="http://www.w3.org/2000/svg">
<path fill-rule="evenodd" clip-rule="evenodd" d="M5.37852 0.0507581C5.08493 0.176385 4.91596 0.5075 4.97885 0.834034C5.01774 1.03598 5.23908 1.27479 5.44029 1.33174C5.54983 1.36277 6.57694 1.37349 8.60384 1.36472C11.5555 1.35193 11.6072 1.35024 11.7276 1.2626C11.9604 1.09328 12.033 0.955166 12.033 0.681873C12.033 0.40858 11.9604 0.270464 11.7276 0.101147C11.6071 0.013377 11.5587 0.0119076 8.55949 0.00244348C6.09514 -0.00529204 5.48797 0.0039128 5.37852 0.0507581ZM0.411501 2.12535C-0.00413148 2.30236 -0.134782 2.85344 0.158405 3.19298C0.332073 3.3941 0.50654 3.44765 0.987985 3.44765H1.40992L1.4218 10.0704L1.43373 16.6931L1.55711 17.0481C1.85322 17.9 2.54727 18.5748 3.42595 18.8651L3.78419 18.9835L8.35207 18.9957C12.3714 19.0065 12.9616 18.9998 13.2669 18.9398C14.296 18.7374 15.1166 18.0272 15.4594 17.0422L15.5809 16.6931L15.5928 10.0742L15.6047 3.45525L16.0886 3.44065C16.4934 3.42842 16.5925 3.41148 16.6948 3.33693C16.9274 3.16748 17 3.02941 17 2.7562C17 2.48291 16.9274 2.34479 16.6947 2.17548L16.5722 2.08637L8.55949 2.07708C1.9656 2.06943 0.522816 2.07798 0.411501 2.12535ZM14.1734 9.98395L14.1617 16.5202L14.0464 16.7599C13.8817 17.102 13.687 17.2974 13.3495 17.4593L13.0549 17.6006H8.50729H3.95972L3.66512 17.4593C3.32763 17.2974 3.13289 17.102 2.96823 16.7599L2.85288 16.5202L2.84121 9.98395L2.82959 3.44765H8.50729H14.185L14.1734 9.98395ZM5.7333 6.61753C5.5536 6.697 5.36818 6.91761 5.33634 7.08978C5.32219 7.16636 5.31643 8.84652 5.32352 10.8235C5.33625 14.3767 5.33745 14.4194 5.42783 14.5373C5.60159 14.7641 5.74333 14.8349 6.02378 14.8349C6.30424 14.8349 6.44598 14.7641 6.61974 14.5373C6.71043 14.419 6.71118 14.3876 6.71118 10.7078C6.71118 7.02798 6.71043 6.99665 6.61974 6.87829C6.56945 6.81264 6.47614 6.72098 6.41241 6.67461C6.26562 6.56783 5.91282 6.53818 5.7333 6.61753ZM10.7003 6.61753C10.5206 6.697 10.3352 6.91761 10.3034 7.08978C10.2892 7.16636 10.2834 8.84652 10.2905 10.8235C10.3033 14.3767 10.3045 14.4194 10.3948 14.5373C10.5686 14.7641 10.7103 14.8349 10.9908 14.8349C11.2713 14.8349 11.413 14.7641 11.5868 14.5373C11.6774 14.419 11.6782 14.3876 11.6782 10.7078C11.6782 7.02798 11.6774 6.99665 11.5868 6.87829C11.5365 6.81264 11.4432 6.72098 11.3794 6.67461C11.2326 6.56783 10.8798 6.53818 10.7003 6.61753Z" fill="#8B8B8B"/>
</svg>
