<svg width="21" height="18" viewBox="0 0 21 18" fill="none" xmlns="http://www.w3.org/2000/svg">
<path d="M19.9002 2.76827L19.9003 2.76866C21.0136 4.93461 20.6029 7.42484 18.4318 10.2619L18.4309 10.2632C16.7131 12.5225 14.2354 14.7908 10.6099 17.4658L10.6091 17.4664C10.5816 17.4868 10.5444 17.5 10.5031 17.5C10.4619 17.5 10.4246 17.4868 10.3972 17.4664L10.3964 17.4659C6.76616 14.786 4.29311 12.498 2.57381 10.2611C0.396642 7.42429 -0.0137078 4.93434 1.09936 2.76866L1.09956 2.76827C1.86274 1.28018 4.13922 -0.0257156 6.88281 0.721328C8.18703 1.07937 9.31974 1.84562 10.0993 2.88921L10.4999 3.42549L10.9004 2.88921C11.6801 1.84549 12.813 1.07918 14.1174 0.721197L14.1186 0.720854C16.8526 -0.0370167 19.1361 1.27851 19.9002 2.76827Z" stroke="#262D19"/>
</svg>
