<svg width="21" height="18" viewBox="0 0 21 18" fill="none" xmlns="http://www.w3.org/2000/svg">
<path d="M20.3451 2.5401C19.4655 0.825205 16.932 -0.577889 13.9851 0.239024C12.5768 0.625491 11.3482 1.45428 10.4999 2.58999C9.65152 1.45428 8.42287 0.625491 7.01465 0.239024C4.06109 -0.565417 1.53416 0.825205 0.654657 2.5401C-0.579275 4.94095 -0.0673243 7.64113 2.17738 10.5658C3.93639 12.8544 6.4502 15.1742 10.0995 17.8681C10.2148 17.9536 10.3569 18 10.5031 18C10.6494 18 10.7915 17.9536 10.9068 17.8681C14.5495 15.1804 17.0699 12.8793 18.8289 10.5658C21.067 7.64113 21.579 4.94095 20.3451 2.5401Z" fill="#262D19"/>
</svg>
