<svg width="50" height="50" viewBox="0 0 50 50" fill="none" xmlns="http://www.w3.org/2000/svg">
<path d="M25 50C38.8071 50 50 38.8071 50 25C50 11.1929 38.8071 0 25 0C11.1929 0 0 11.1929 0 25C0 38.8071 11.1929 50 25 50Z" fill="url(#paint0_linear_4_13)"/>
<path d="M20.9368 36.4587C20.1268 36.4587 20.2646 36.1528 19.9852 35.3816L17.6035 27.5435L35.9368 16.667" fill="#CBD9E8"/>
<path d="M20.9365 36.459C21.5615 36.459 21.8376 36.1732 22.1865 35.834L25.5199 32.5927L21.3619 30.0854" fill="#AFC9DE"/>
<path d="M21.3612 30.086L31.4362 37.5296C32.586 38.1639 33.4156 37.8354 33.702 36.4623L37.8031 17.1366C38.2229 15.4533 37.1614 14.6895 36.0614 15.1889L11.9802 24.4745C10.3364 25.1339 10.3462 26.051 11.6806 26.4595L17.8604 28.3885L32.1673 19.3625C32.8427 18.9529 33.4627 19.1729 32.9539 19.6245" fill="white"/>
<defs>
<linearGradient id="paint0_linear_4_13" x1="25" y1="0" x2="25" y2="49.6292" gradientUnits="userSpaceOnUse">
<stop stop-color="#2AABEE"/>
<stop offset="1" stop-color="#229ED9"/>
</linearGradient>
</defs>
</svg>
