<svg width="8" height="6" viewBox="0 0 8 6" fill="none" xmlns="http://www.w3.org/2000/svg">
<path d="M3.72561 5.52284C3.75619 5.56725 3.79711 5.60357 3.84484 5.62865C3.89258 5.65374 3.94569 5.66685 3.99961 5.66685C4.05354 5.66685 4.10665 5.65374 4.15438 5.62865C4.20211 5.60357 4.24303 5.56725 4.27361 5.52284L7.27361 1.1895C7.30834 1.13952 7.3287 1.08098 7.33249 1.02024C7.33628 0.959497 7.32335 0.898878 7.29511 0.844969C7.26686 0.791059 7.22439 0.74592 7.17229 0.714457C7.1202 0.682993 7.06047 0.666408 6.99961 0.666504H0.999613C0.938894 0.666755 0.879392 0.683553 0.827506 0.715092C0.77562 0.746631 0.733314 0.791717 0.705136 0.845502C0.676958 0.899287 0.663974 0.959736 0.667582 1.02035C0.67119 1.08096 0.691253 1.13944 0.725613 1.1895L3.72561 5.52284Z" fill="#202020"/>
</svg>
