<svg width="12" height="14" viewBox="0 0 12 14" fill="none" xmlns="http://www.w3.org/2000/svg">
<path d="M11.0719 9.03725C10.6638 9.47336 10.1072 9.68889 9.40213 9.68382C9.01153 9.98813 8.56015 10.1402 8.04811 10.1402C7.93658 10.1402 7.82755 10.1326 7.72097 10.1174C7.43191 10.2848 7.13011 10.3786 6.81582 10.3988V11.6844C6.81582 12.2169 6.62332 12.6746 6.23772 13.0575C5.85229 13.4403 5.39329 13.6318 4.86084 13.6318C4.33843 13.6318 3.88457 13.4391 3.49911 13.0537C3.11371 12.6682 2.92099 12.2118 2.92099 11.6844V8.83931C2.61674 8.95082 2.29216 9.00661 1.94728 9.00661C1.32861 9.00661 0.849333 8.79991 0.509594 8.38668C0.169803 7.97333 0 7.44972 0 6.81583C0 6.62317 0.044309 6.44684 0.133114 6.28719C0.221918 6.12753 0.347385 5.98792 0.509701 5.86874C0.671937 5.74967 0.831695 5.64701 0.988948 5.56073C1.14617 5.47438 1.32871 5.38065 1.53667 5.27927C1.74457 5.17786 1.90172 5.09409 2.00827 5.02825C2.28715 4.85091 2.61426 4.59715 2.98954 4.2677C3.00479 4.25741 3.0479 4.22184 3.11888 4.16112C3.18993 4.10021 3.24447 4.05207 3.28244 4.0165C3.32046 3.98095 3.375 3.92897 3.44593 3.86058C3.51691 3.79221 3.57396 3.73119 3.61707 3.67801C3.6601 3.62486 3.70579 3.5676 3.75394 3.50677C3.80214 3.44605 3.8376 3.38642 3.86049 3.32807C3.88337 3.26972 3.89478 3.21518 3.89478 3.16447V0.973584C3.89478 0.704773 3.98984 0.475393 4.18 0.285182C4.37021 0.0949697 4.5997 -0.00012207 4.86851 -0.00012207L9.73681 -0.00012207C10.0056 -0.00012207 10.2352 0.0949697 10.4254 0.285182C10.6154 0.475287 10.7107 0.704773 10.7107 0.973584V3.16447C10.7107 3.46371 10.8603 4.02923 11.1596 4.8608C11.5095 5.8194 11.6843 6.63598 11.6843 7.31026C11.6842 8.02544 11.4804 8.60106 11.0719 9.03725ZM9.5925 1.11826C9.49603 1.02197 9.38188 0.973639 9.25002 0.973639C9.11816 0.973639 9.00418 1.02205 8.90773 1.11826C8.81143 1.21453 8.76329 1.3287 8.76329 1.46056C8.76329 1.59242 8.81143 1.70654 8.90773 1.80285C9.00418 1.89923 9.11816 1.94748 9.25002 1.94748C9.38188 1.94748 9.496 1.89923 9.5925 1.80285C9.68877 1.70656 9.73694 1.59242 9.73694 1.46056C9.73694 1.3287 9.68872 1.21453 9.5925 1.11826ZM10.4673 5.90684C10.305 5.40726 10.1427 4.91664 9.98039 4.43473C9.8181 3.95303 9.73694 3.5295 9.73694 3.1645V2.92113L4.86854 2.92113V3.1645C4.86854 3.52449 4.72402 3.87944 4.43499 4.22941C4.30816 4.38149 4.03935 4.63778 3.62863 4.99777C3.21791 5.36288 2.85022 5.64698 2.52567 5.8498C2.41912 5.91582 2.25435 6.00953 2.03121 6.13134C1.32626 6.46599 0.973787 6.69409 0.973787 6.81591C0.973787 7.17595 1.05111 7.46885 1.20583 7.69452C1.36042 7.9202 1.60768 8.03298 1.94744 8.03298C2.16555 8.03298 2.37982 7.99496 2.59026 7.91887C2.80069 7.84288 2.97319 7.75922 3.10752 7.66791C3.24186 7.5766 3.38137 7.49294 3.52592 7.41684C3.67057 7.34077 3.79353 7.30272 3.89491 7.30272L3.89491 11.6844C3.89491 11.9379 3.99259 12.1635 4.18784 12.3614C4.38306 12.5591 4.60996 12.658 4.86867 12.658C5.13239 12.658 5.36057 12.5617 5.55334 12.369C5.74606 12.1763 5.84238 11.948 5.84238 11.6843L5.84238 9.1664C5.92868 9.24255 6.04903 9.3059 6.20367 9.35661C6.35834 9.40731 6.4991 9.4327 6.62585 9.4327C6.97582 9.4327 7.27743 9.29836 7.53092 9.02955C7.69323 9.12086 7.86829 9.1665 8.05594 9.1665C8.24357 9.1665 8.42994 9.12209 8.61504 9.03339C8.80003 8.94458 8.93314 8.82413 9.0143 8.67204C9.16639 8.69735 9.30834 8.71006 9.44021 8.71006C10.287 8.71006 10.7106 8.23087 10.7106 7.2724C10.7108 6.8616 10.6296 6.40634 10.4673 5.90684Z" fill="#202020"/>
</svg>
