<svg width="44" height="44" viewBox="0 0 44 44" fill="none" xmlns="http://www.w3.org/2000/svg">
<circle cx="21.8691" cy="21.7461" r="21.5" fill="#E4DFDF"/>
<g clip-path="url(#clip0_1901_428)">
<path d="M29.1105 15.7969H14.6278C14.485 15.7969 14.3691 15.9125 14.3691 16.0555V27.4348C14.3691 27.5778 14.485 27.6934 14.6278 27.6934H29.1105C29.2533 27.6934 29.3691 27.5778 29.3691 27.4348V16.0555C29.3691 15.9125 29.2533 15.7969 29.1105 15.7969ZM28.8519 27.1762H14.8864V16.3141H28.8519V27.1762Z" fill="#A2A2A2"/>
<path d="M18.5067 21.5211C19.3009 21.5211 19.9469 20.8751 19.9469 20.0811C19.9469 19.2867 19.3009 18.6406 18.5067 18.6406C17.7124 18.6406 17.0664 19.2867 17.0664 20.0809C17.0664 20.8751 17.7124 21.5211 18.5067 21.5211ZM18.5067 19.1579C19.0156 19.1579 19.4297 19.5722 19.4297 20.0809C19.4297 20.5896 19.0156 21.0039 18.5067 21.0039C17.9977 21.0039 17.5836 20.5899 17.5836 20.0811C17.5836 19.5724 17.9977 19.1579 18.5067 19.1579Z" fill="#A2A2A2"/>
<path d="M16.1806 26.1415C16.2411 26.1415 16.3022 26.1202 16.3513 26.0771L20.5702 22.3627L23.2345 25.0268C23.3356 25.1279 23.4991 25.1279 23.6002 25.0268C23.7013 24.9257 23.7013 24.7622 23.6002 24.6611L22.357 23.4179L24.7314 20.8177L27.6437 23.4875C27.749 23.584 27.9127 23.5767 28.0092 23.4715C28.1056 23.3662 28.0986 23.2025 27.9931 23.106L24.8897 20.2612C24.839 20.2149 24.7715 20.1919 24.7035 20.1934C24.6349 20.1965 24.5703 20.2268 24.524 20.2775L21.9911 23.0517L20.7644 21.8251C20.6677 21.7286 20.513 21.7237 20.4106 21.8137L16.0097 25.6886C15.9024 25.783 15.892 25.9465 15.9864 26.0538C16.0376 26.112 16.109 26.1415 16.1806 26.1415Z" fill="#A2A2A2"/>
</g>
<defs>
<clipPath id="clip0_1901_428">
<rect width="15" height="15" fill="white" transform="translate(14.3691 14.2461)"/>
</clipPath>
</defs>
</svg>
