<svg width="25" height="25" viewBox="0 0 25 25" fill="none" xmlns="http://www.w3.org/2000/svg">
<path fill-rule="evenodd" clip-rule="evenodd" d="M8.668 2.03233C7.93166 2.13602 7.37026 2.5226 6.99382 3.18509C6.87289 3.39793 6.73888 3.88186 6.73888 4.10562V4.25614L4.50452 4.27604C2.08038 4.29767 2.14846 4.29038 1.52978 4.59441C1.35245 4.68153 1.10381 4.87532 0.87251 5.10666C0.576696 5.40251 0.459777 5.56519 0.302029 5.90048C0.192875 6.13242 0.0801076 6.45466 0.0513906 6.6166C0.0161293 6.81545 -0.000524637 8.94028 1.25858e-05 13.1656C0.000745162 18.3326 0.0127594 19.477 0.0692166 19.7475C0.279612 20.7559 1.06078 21.5776 2.12365 21.9087C2.40413 21.9961 2.84837 22 12.5018 22C21.9877 22 22.6055 21.9948 22.8989 21.9125C23.7973 21.6603 24.5087 20.9733 24.8713 20.0073L24.98 19.7178L24.9938 13.2929C25.0091 6.18938 25.0213 6.49762 24.6991 5.84054C24.4965 5.42751 23.8666 4.78671 23.4738 4.59411C22.8544 4.29038 22.9226 4.29767 20.5016 4.27609L18.2697 4.25619L18.2382 4.02405C18.1078 3.06473 17.5776 2.41574 16.6589 2.09112C16.4604 2.02096 15.9848 2.0102 12.6972 2.00122C10.6423 1.99566 8.82916 2.00965 8.668 2.03233ZM16.4821 3.36429C16.8781 3.549 16.9949 3.81111 16.9949 4.51463C16.9949 5.07387 17.0608 5.2875 17.28 5.43863C17.4003 5.52158 17.6056 5.53026 19.9985 5.55318L22.5869 5.57799L22.8556 5.70763C23.1972 5.8725 23.4692 6.14874 23.6314 6.49584L23.7591 6.76871V13.0944V19.4201L23.6462 19.7039C23.5032 20.0636 23.1794 20.4047 22.8175 20.577L22.5381 20.7101H12.5018H2.46552L2.18617 20.577C1.82027 20.4028 1.49764 20.062 1.36964 19.7145C1.26991 19.4438 1.26898 19.3819 1.26898 13.144C1.26898 6.93392 1.27035 6.84313 1.36827 6.5772C1.50096 6.21701 1.79526 5.88797 2.13762 5.71721L2.41668 5.57799L5.00512 5.55318C6.94625 5.53458 7.62017 5.5129 7.70002 5.46646C7.94201 5.32576 8.01674 5.1347 8.04023 4.59614C8.05239 4.31751 8.07329 4.01656 8.08672 3.92731C8.11598 3.73317 8.36452 3.43083 8.56939 3.34013C8.687 3.28804 9.48238 3.27469 12.5018 3.274C16.0722 3.2732 16.2979 3.27831 16.4821 3.36429ZM12.0378 7.2192C11.3566 7.315 11.0942 7.37131 10.665 7.5139C9.77399 7.8098 9.0567 8.25989 8.3736 8.9517C7.51053 9.82573 6.95983 10.9013 6.73497 12.1518C6.64042 12.6778 6.66333 13.735 6.78186 14.3149C7.35029 17.0961 9.69048 19.0525 12.4526 19.0554C13.1813 19.0562 13.5821 18.9974 14.2339 18.7936C15.3783 18.436 16.4339 17.6907 17.1479 16.7363C17.8167 15.8422 18.2033 14.8248 18.3102 13.6774C18.5953 10.6187 16.5015 7.8346 13.5088 7.29297C13.1846 7.23428 12.2602 7.18794 12.0378 7.2192ZM20.4869 7.28469C20.0798 7.47659 19.8206 7.89339 19.8206 8.35634C19.8206 9.23008 20.6807 9.77612 21.4694 9.40308C22.3322 8.99496 22.3322 7.71771 21.4694 7.30959C21.1598 7.16314 20.7659 7.15316 20.4869 7.28469ZM13.6007 8.67118C14.0946 8.81045 14.3406 8.90824 14.6957 9.10654C15.7944 9.72006 16.5753 10.7371 16.9297 12.0166C17.048 12.4435 17.0721 13.5923 16.9731 14.0884C16.7392 15.2611 16.0343 16.3353 15.0747 16.9812C14.2736 17.5205 13.4505 17.7742 12.5018 17.7742C11.7699 17.7742 11.232 17.6573 10.6182 17.3652C9.3427 16.758 8.55513 15.8401 8.12404 14.4584C7.9931 14.0388 7.98499 13.9621 7.98714 13.1688C7.98924 12.3965 8.00057 12.2886 8.1215 11.8894C8.64959 10.1457 9.9627 8.93468 11.6883 8.60004C12.1665 8.50731 13.1489 8.54382 13.6007 8.67118Z" fill="#202020"/>
</svg>
