<svg width="32" height="32" viewBox="0 0 32 32" fill="none" xmlns="http://www.w3.org/2000/svg">
<circle cx="16" cy="16" r="16" fill="#7294C7"/>
<path d="M23.8448 20.0919C23.8448 20.0255 23.7784 20.0255 23.7784 19.9591C23.5127 19.4277 22.915 18.7635 22.1179 18.0329C21.7194 17.7009 21.5202 17.4352 21.3873 17.3023C21.1881 17.0367 21.1881 16.8374 21.2545 16.5717C21.3209 16.3725 21.5866 16.0404 22.0515 15.4426C22.3172 15.1105 22.45 14.9113 22.6493 14.712C23.6455 13.3837 24.1105 12.5202 23.9776 12.1217L23.9112 12.0553C23.8448 11.9889 23.7784 11.9225 23.6455 11.9225C23.5127 11.856 23.3135 11.856 23.1142 11.9225H20.5903C20.5239 11.9225 20.5239 11.9225 20.3911 11.9225C20.3246 11.9225 20.2582 11.9225 20.2582 11.9225H20.1918H20.1254L20.059 11.9889C19.9925 12.0553 19.9925 12.0553 19.9925 12.1217C19.7269 12.8523 19.3948 13.4501 19.0627 14.1143C18.8634 14.4464 18.6642 14.7784 18.4649 15.0441C18.2657 15.3098 18.1328 15.509 18 15.6419C17.8672 15.7747 17.7343 15.8411 17.6679 15.974C17.6015 16.0404 17.4686 16.1068 17.4686 16.0404C17.4022 16.0404 17.3358 16.0404 17.3358 15.974C17.2694 15.9076 17.203 15.8411 17.1366 15.7747C17.0701 15.7083 17.0701 15.5755 17.0037 15.4426C17.0037 15.3098 17.0037 15.177 17.0037 15.1105C17.0037 15.0441 17.0037 14.8449 17.0037 14.712C17.0037 14.5128 17.0037 14.3799 17.0037 14.3135C17.0037 14.1143 17.0037 13.8486 17.0037 13.5829C17.0037 13.3172 17.0037 13.118 17.0037 12.9851C17.0037 12.8523 17.0037 12.6531 17.0037 12.5202C17.0037 12.321 17.0037 12.1881 17.0037 12.1217C17.0037 12.0553 16.9373 11.9225 16.9373 11.856C16.8709 11.7896 16.8045 11.7232 16.738 11.6568C16.6716 11.5904 16.5388 11.5904 16.4724 11.5239C16.1403 11.4575 15.7418 11.3911 15.2769 11.3911C14.2142 11.3911 13.4836 11.4575 13.2179 11.5904C13.085 11.6568 12.9522 11.7232 12.8858 11.856C12.753 11.9889 12.7529 12.0553 12.8194 12.0553C13.1515 12.1217 13.4171 12.2545 13.55 12.4538L13.6164 12.5866C13.6828 12.6531 13.6828 12.7859 13.7492 12.9851C13.8156 13.1844 13.8156 13.3837 13.8156 13.6493C13.8156 14.0478 13.8156 14.4464 13.8156 14.712C13.8156 15.0441 13.7492 15.2434 13.7492 15.4426C13.7492 15.6419 13.6828 15.7747 13.6164 15.8411C13.55 15.974 13.55 16.0404 13.4835 16.0404C13.4835 16.0404 13.4835 16.1068 13.4171 16.1068C13.3507 16.1068 13.2843 16.1732 13.1515 16.1732C13.085 16.1732 12.9522 16.1068 12.8858 16.0404C12.753 15.974 12.6201 15.8411 12.5537 15.7083C12.4209 15.5755 12.288 15.3762 12.1552 15.1105C12.0223 14.8449 11.8231 14.5792 11.6902 14.1807L11.5574 13.915C11.491 13.7822 11.3582 13.5165 11.2253 13.1844C11.0925 12.8523 10.9597 12.5866 10.8268 12.2546C10.7604 12.1217 10.694 12.0553 10.6276 11.9889H10.5611C10.5611 11.9889 10.4947 11.9225 10.4283 11.9225C10.3619 11.9225 10.2955 11.856 10.2291 11.856H7.83799C7.57232 11.856 7.43948 11.9225 7.37306 11.9889L7.30664 12.0553C7.30664 12.0553 7.30664 12.1217 7.30664 12.1881C7.30664 12.2545 7.30664 12.321 7.37306 12.4538C7.70515 13.2508 8.10366 14.0478 8.50217 14.8449C8.90068 15.5755 9.2992 16.2397 9.56487 16.7046C9.89696 17.1695 10.1626 17.6344 10.4947 18.0329C10.8268 18.4315 11.0261 18.6971 11.0925 18.83C11.2253 18.9628 11.2917 19.0292 11.3582 19.0956L11.5574 19.2949C11.6903 19.4277 11.8895 19.627 12.1552 19.8262C12.4209 20.0255 12.7529 20.2247 13.085 20.424C13.4171 20.6233 13.8156 20.7561 14.2142 20.8889C14.6791 21.0218 15.0776 21.0882 15.4761 21.0218H16.4724C16.6716 21.0218 16.8045 20.9554 16.9373 20.8225L17.0037 20.7561C17.0037 20.6897 17.0701 20.6897 17.0701 20.6233C17.0701 20.5568 17.0701 20.4904 17.0701 20.3576C17.0701 20.0919 17.0701 19.8927 17.1366 19.6934C17.203 19.4942 17.203 19.3613 17.2694 19.2285C17.3358 19.0956 17.4022 19.0292 17.4686 18.9628C17.5351 18.8964 17.6015 18.83 17.6015 18.83H17.6679C17.8007 18.7635 18 18.83 18.1328 18.9628C18.3321 19.0956 18.5313 19.2949 18.6642 19.4941C18.797 19.6934 18.9963 19.8927 19.262 20.1583C19.5276 20.424 19.7269 20.6233 19.8597 20.6897L20.059 20.8225C20.1918 20.8889 20.3246 20.9554 20.5239 21.0218C20.7232 21.0882 20.856 21.0882 20.9888 21.0882L23.2471 21.0218C23.4463 21.0218 23.6456 20.9554 23.7784 20.8889C23.9112 20.8225 23.9776 20.7561 23.9776 20.6233C23.9776 20.5568 23.9776 20.424 23.9776 20.3576C23.8448 20.2248 23.8448 20.1583 23.8448 20.0919Z" fill="white"/>
</svg>
