<svg width="15" height="15" viewBox="0 0 15 15" fill="none" xmlns="http://www.w3.org/2000/svg">
<circle cx="7.5" cy="7.5" r="7.03125" fill="white" stroke="white" stroke-width="0.9375"/>
<path d="M7.09129 11V5.99208H8.27154V11H7.09129ZM7.68468 5.28132C7.49775 5.28132 7.3369 5.21938 7.20214 5.09548C7.06738 4.96941 7 4.81835 7 4.64229C7 4.46406 7.06738 4.31299 7.20214 4.1891C7.3369 4.06303 7.49775 4 7.68468 4C7.87378 4 8.03462 4.06303 8.16721 4.1891C8.30197 4.31299 8.36935 4.46406 8.36935 4.64229C8.36935 4.81835 8.30197 4.96941 8.16721 5.09548C8.03462 5.21938 7.87378 5.28132 7.68468 5.28132Z" fill="#AE1F25"/>
</svg>
