<svg width="24" height="24" viewBox="0 0 24 24" fill="none" xmlns="http://www.w3.org/2000/svg">
<path d="M13.6605 15.2518C12.2811 16.2325 10.5835 16.6593 8.90426 16.4474C7.22502 16.2355 5.68665 15.4005 4.59404 14.1079C3.50143 12.8152 2.93433 11.1593 3.00512 9.46818C3.07591 7.77711 3.77942 6.17434 4.97624 4.97752C6.17306 3.7807 7.77583 3.07719 9.4669 3.0064C11.158 2.93561 12.8139 3.50272 14.1066 4.59532C15.3992 5.68793 16.2342 7.2263 16.4461 8.90554C16.658 10.5848 16.2313 12.2823 15.2505 13.6618L20.0783 18.2744C20.1888 18.3774 20.2775 18.5016 20.3389 18.6396C20.4004 18.7776 20.4335 18.9266 20.4362 19.0776C20.4388 19.2287 20.411 19.3787 20.3545 19.5188C20.2979 19.6589 20.2137 19.7861 20.1068 19.893C20 19.9998 19.8728 20.084 19.7327 20.1406C19.5926 20.1972 19.4425 20.225 19.2915 20.2223C19.1404 20.2196 18.9915 20.1866 18.8535 20.1251C18.7155 20.0636 18.5913 19.9749 18.4883 19.8644L13.6605 15.2518ZM14.25 9.74979C14.25 8.55632 13.7759 7.41172 12.932 6.56781C12.0881 5.7239 10.9435 5.24979 9.75001 5.24979C8.55653 5.24979 7.41194 5.7239 6.56803 6.56781C5.72411 7.41172 5.25001 8.55632 5.25001 9.74979C5.25001 10.9433 5.72411 12.0879 6.56803 12.9318C7.41194 13.7757 8.55653 14.2498 9.75001 14.2498C10.9435 14.2498 12.0881 13.7757 12.932 12.9318C13.7759 12.0879 14.25 10.9433 14.25 9.74979Z" fill="#262D19"/>
</svg>
