<svg width="17" height="17" viewBox="0 0 17 17" fill="none" xmlns="http://www.w3.org/2000/svg">
<path d="M5.62383 1.73833C5.42464 1.93758 5.31274 2.20778 5.31274 2.48952C5.31274 2.77126 5.42464 3.04146 5.62383 3.24071L10.8832 8.50008L5.62383 13.7595C5.43029 13.9598 5.32319 14.2282 5.32561 14.5068C5.32803 14.7854 5.43978 15.0519 5.63677 15.2489C5.83377 15.4459 6.10026 15.5576 6.37884 15.56C6.65742 15.5625 6.92581 15.4554 7.1262 15.2618L13.1368 9.25127C13.336 9.05202 13.4479 8.78182 13.4479 8.50008C13.4479 8.21834 13.336 7.94814 13.1368 7.74889L7.1262 1.73833C6.92696 1.53914 6.65675 1.42725 6.37502 1.42725C6.09328 1.42725 5.82308 1.53914 5.62383 1.73833V1.73833Z" fill="white"/>
</svg>
