<svg width="11" height="10" viewBox="0 0 11 10" fill="none" xmlns="http://www.w3.org/2000/svg">
<path d="M0.219974 4.56071L2.74968 2.50783V1.10966C2.73622 0.829439 2.83344 0.555264 3.02003 0.34725C3.20662 0.139236 3.46736 0.0143593 3.74507 0H10.0143C10.2901 0.0171773 10.5481 0.143275 10.7323 0.350977C10.9166 0.558678 11.0123 0.831256 10.9987 1.10966V6.65797C11.0038 6.87829 10.9438 7.09516 10.8263 7.28093C10.7087 7.4667 10.539 7.61295 10.3388 7.70105C10.4401 7.95102 10.4796 8.22211 10.4538 8.49091C10.4281 8.75971 10.3379 9.01816 10.1911 9.24395C10.0442 9.46974 9.84513 9.6561 9.61097 9.78694C9.37681 9.91778 9.11461 9.98917 8.847 9.99495C8.57939 10.0007 8.3144 9.94074 8.0749 9.82015C7.83541 9.69955 7.62859 9.52197 7.47229 9.30273C7.316 9.08349 7.21493 8.82918 7.1778 8.56174C7.14067 8.29429 7.16859 8.02175 7.25917 7.76763H3.76157C3.85201 8.01904 3.88108 8.28874 3.8463 8.55388C3.81152 8.81903 3.71392 9.07181 3.56177 9.29084C3.40961 9.50986 3.20739 9.68866 2.97221 9.8121C2.73704 9.93555 2.47585 10 2.21075 10C1.94565 10 1.68445 9.93555 1.44928 9.8121C1.2141 9.68866 1.01188 9.50986 0.859726 9.29084C0.707573 9.07181 0.609975 8.81903 0.575195 8.55388C0.540416 8.28874 0.569479 8.01904 0.659925 7.76763H0.549936C0.404084 7.76763 0.264205 7.70917 0.161072 7.60512C0.0579386 7.50107 -9.53674e-07 7.35995 -9.53674e-07 7.2128V4.99347C0.00168228 4.90922 0.0223665 4.82646 0.0604811 4.75148C0.0985956 4.67649 0.15314 4.61125 0.219974 4.56071ZM1.09987 5.25979V6.65797H2.74968V3.9282L1.09987 5.25979ZM8.24905 8.32246C8.24905 8.43219 8.28131 8.53946 8.34173 8.6307C8.40216 8.72195 8.48805 8.79306 8.58854 8.83505C8.68902 8.87705 8.7996 8.88803 8.90628 8.86663C9.01295 8.84522 9.11094 8.79238 9.18785 8.71478C9.26476 8.63719 9.31714 8.53833 9.33836 8.4307C9.35958 8.32307 9.34869 8.21152 9.30706 8.11013C9.26544 8.00875 9.19495 7.9221 9.10452 7.86113C9.01408 7.80017 8.90776 7.76763 8.79899 7.76763C8.65314 7.76763 8.51326 7.82608 8.41012 7.93013C8.30699 8.03418 8.24905 8.17531 8.24905 8.32246ZM1.64981 8.32246C1.64981 8.43219 1.68206 8.53946 1.74249 8.6307C1.80292 8.72195 1.88881 8.79306 1.9893 8.83505C2.08978 8.87705 2.20036 8.88803 2.30703 8.86663C2.41371 8.84522 2.5117 8.79238 2.58861 8.71478C2.66552 8.63719 2.7179 8.53833 2.73912 8.4307C2.76034 8.32307 2.74945 8.21152 2.70782 8.11013C2.6662 8.00875 2.59571 7.9221 2.50528 7.86113C2.41484 7.80017 2.30851 7.76763 2.19975 7.76763C2.05389 7.76763 1.91402 7.82608 1.81088 7.93013C1.70775 8.03418 1.64981 8.17531 1.64981 8.32246Z" fill="#202020"/>
</svg>
